<?xml version="1.0" encoding="UTF-8"?><svg id="_圖層_2" xmlns="http://www.w3.org/2000/svg" viewBox="0 0 1071.74 808.21"><defs><style>.cls-1{letter-spacing:1.58em;}.cls-2{font-family:GlowSansJ-Condensed-Thin-83pv-RKSJ-H, 'Glow Sans J';font-size:46.04px;font-weight:200;}.cls-2,.cls-3{fill:#fff;}.cls-3{stroke-width:0px;}</style></defs><g id="_圖層_1-2"><text class="cls-2" transform="translate(.33 785.19)"><tspan class="cls-1" x="0" y="0">阻止國會濫權法案三</tspan><tspan x="1029.37" y="0">讀</tspan></text><path class="cls-3" d="m104.58,120.12H4.06V6.58h100.52v113.54Zm-3.36-3.78V9.8H7.56v106.54h93.66Zm-52.36-28.56l-2.1.56c-1.68.42-3.36.84-5.04,1.26l-1.4.42c-8.68,2.38-16.94,4.62-23.66,6.3l-1.12-3.22c9.1-2.1,22.26-5.46,35.7-9.1l1.54-.28,1.54-.42c.28-.14.56-.14.7-.28l.28,3.08c-2.1.56-4.34,1.12-6.44,1.68Zm-.98,19.46l-2.24-2.94c8.12-5.32,15.12-13.58,20.86-22.4-3.92-11.9-6.58-28.98-8.26-46.34H16.66v-3.5h41.3c-.42-5.74-.84-11.2-1.12-17.22h3.22c.14,3.36.42,6.58.7,9.8l.14,1.26c.14,2.1.42,4.06.56,6.16h31.22v3.5h-30.8c1.4,15.82,3.64,31.22,7,42.56,5.46-9.38,10.08-20.44,12.88-32.9l3.36.7c-3.22,14.14-8.54,26.6-14.98,36.82,3.78,10.36,9.1,18.06,15.26,19.32,2.1.42,3.64-6.3,4.62-15.68l2.94.56c-1.54,13.86-3.36,19.32-8.26,18.2-7-.98-12.88-8.4-16.94-18.9-5.6,7.98-12.04,15.4-19.88,21Zm1.68-32.76h-27.44v-26.74h27.44v26.74Zm-3.5-3.5v-19.88h-20.58v19.88h20.58Zm39.48-44.38c-3.78-2.66-10.22-6.58-15.4-9.66l1.96-2.24c1.54.98,3.22,1.82,5.04,2.94l1.26.7c3.36,1.96,6.72,4.06,9.1,5.6l-1.96,2.66Z"/><path class="cls-3" d="m332.75,34.16l-1.26.7c-3.64,1.82-7.28,3.5-11.06,5.18l-1.4-2.94c21.42-9.1,42.56-22.82,53.06-37.1h3.36c13.72,15.4,36.82,28.42,55.58,35.42l-1.54,3.22c-8.4-3.36-17.36-7.7-25.9-12.74l-1.26-.7c-10.92-6.44-20.86-14-28.14-21.98-8.96,10.78-24.36,21.98-41.44,30.94Zm83.58,36.12h-81.9v-31.36h81.9v31.36Zm-43.68-3.36v-24.64h-34.86v24.64h34.86Zm36.4,54.46h-66.92v-41.02h66.92v41.02Zm-3.36-23.8v-14h-60.06v14h60.06Zm0,19.88v-15.96h-60.06v15.96h60.06Zm-47.74-53.34c-1.54-4.62-5.32-11.2-9.38-16.24l2.94-1.68c4.06,5.04,7.98,11.34,9.52,15.96l-3.08,1.96Zm38.22-35.98h-42.7v-3.22h42.7v3.22Zm16.94,38.78v-24.64h-36.96v24.64h36.96Zm-15.54-14.84l-.7,1.26c-2.24,3.92-4.34,7.84-6.16,10.92l-2.8-1.68c2.52-4.76,6.44-12.04,8.68-16.8l3.36,1.96c-.7,1.4-1.54,2.94-2.38,4.34Z"/><path class="cls-3" d="m658.92,54.88c-4.76-4.06-12.6-10.22-19.32-14.98l2.24-2.38c6.58,4.62,14.56,10.64,19.18,14.56l-2.1,2.8Zm-13.44,68.18l-2.94-2.1c2.52-6.16,6.16-15.4,9.8-24.78l.56-1.54c.14-.42.42-.84.56-1.4l.56-1.4c.14-.28.14-.42.28-.7l.56-1.4c1.82-5.04,3.78-9.8,5.46-14.14l2.52,1.82c-5.18,14-12.32,33.46-17.36,45.64Zm18.06-104.02c-3.92-5.04-11.34-10.78-18.2-15.26l2.38-2.24c6.86,4.48,14.14,10.08,18.06,14.98l-2.24,2.52Zm87.22,102.48h-86.8v-3.64h10.64v-41.44h67.62v41.44h8.54v3.64Zm-40.18-57.96h-40.6V3.78h38.36v3.5h-16.8v13.58h15.4v23.24h-15.4v16.1h19.04v3.36Zm-22.68-42.7V7.28h-14.56v13.58h14.56Zm15.68,19.74v-16.24h-30.24v16.24h30.24Zm-15.68,19.6v-16.1h-14.56v16.1h14.56Zm8.12,57.68v-37.94h-17.92v37.94h17.92Zm21,0v-37.94h-17.5v37.94h17.5Zm-3.78-75.04l-3.5-1.82c5.88-10.78,9.38-24.92,11.34-41.02l3.78.7c-.56,3.64-1.26,7-2.1,10.22l-.28,1.4c-.56,2.38-1.12,4.76-1.68,7.42h29.12v3.5h-29.4c-1.82,7.7-4.62,14.14-7.28,19.6Zm35,13.72h-31.64v-3.36h31.64v3.36Zm-9.38,61.32v-37.94h-17.78v37.94h17.78Z"/><path class="cls-3" d="m982.99,124.88h-3.36V45.78c-.56,2.24-1.12,4.48-1.68,6.72l-.42,1.54c-.84,2.66-1.54,5.46-2.38,8.12l-.42,1.54c-3.92,12.46-8.4,23.94-12.74,31.08l-3.08-2.1c5.18-8.12,10.36-21.7,14.42-35.84l.42-1.54c1.96-7.28,3.78-14.84,5.18-21.84h-17.64v-3.64h18.34V0h3.36v29.82h15.12v3.64h-15.12v14.42c1.68,2.24,4.48,6.72,7.14,11.2l.98,1.54c1.68,2.8,3.36,5.6,4.62,7.7l.56.98c.7.98,1.12,1.82,1.4,2.38l-2.52,2.94c-1.96-4.2-8.12-14.7-12.18-21.42v71.68Zm28.56.7h-3.5v-49.56c-3.5,4.9-7.84,9.24-11.76,13.02l-2.52-2.52c8.68-7.84,17.5-20.16,22.54-32.62l3.36.98c-1.82,4.2-3.92,8.68-6.3,12.88h19.88c1.96-4.2,4.2-9.24,5.46-12.88l3.5,1.12c-.56,1.4-1.26,2.94-1.96,4.34l-.56,1.26c-.84,2.1-1.82,4.2-2.8,6.16h32.06v3.64h-30.94v11.62h26.74v3.78h-26.74v12.18h26.74v3.78h-26.74v12.74h32.34v3.36h-58.8v6.72Zm10.78-101.92h-3.5v-8.26h-22.26v-3.5h22.26V0h3.5v11.9h25.2V0h3.5v11.9h20.44v3.5h-20.44v7.7h-3.5v-7.7h-25.2v8.26Zm7.84,28.84h-25.48v-24.92h25.48v24.92Zm-3.36-3.64v-18.06h-18.76v18.06h18.76Zm7.7,34.16v-11.62h-22.96v11.62h22.96Zm0,15.96v-12.18h-22.96v12.18h22.96Zm0,16.52v-12.74h-22.96v12.74h22.96Zm30.94-63h-25.76v-24.92h25.76v24.92Zm-3.5-3.64v-18.06h-19.04v18.06h19.04Z"/><path class="cls-3" d="m108.78,700.02H0v-3.5h63.42c2.8-7.7,6.02-18.34,9.1-29.54l.42-1.4c.14-.56.28-.98.42-1.54l.28-1.4c.14-.28.14-.56.28-.7l.42-1.54c.14-.56.28-.98.42-1.54l.28-1.4c.14-.28.14-.56.28-.84l.28-1.4c.28-.7.42-1.54.7-2.24l.28-1.54c.14-.14.14-.42.28-.7l.28-1.4c2.38-9.66,4.62-18.76,6.16-26.32l3.92.98c-2.24,8.96-4.9,19.6-7.84,30.52l-.56,2.24c-.84,3.08-1.68,6.3-2.52,9.38l-.42,1.4c-2.94,10.78-6.02,21-8.82,28.98h41.72v3.5Zm-3.22-85.68H4.2v-3.5h47.88v-28.7h3.5v28.7h49.98v3.5Zm-72.24,71.12c-1.4-8.26-3.36-19.18-5.74-30.66l-.28-1.4c-.14-.7-.28-1.54-.42-2.24l-.28-1.4c-.42-1.96-.84-3.92-1.26-5.88l-.42-2.24-.42-1.4-.28-1.54c-.98-4.76-2.1-9.52-3.22-14l3.22-.7c1.54,6.02,3.08,12.6,4.48,19.18l.42,2.24.42,2.1c.42,1.54.7,3.08.98,4.48l.28,1.54c.28,1.12.56,2.38.84,3.64l.28,1.4c1.96,9.94,3.64,19.18,4.76,26.46l-3.36.42Z"/><path class="cls-3" d="m327.57,707.16h-3.36v-119.42h28.14l.56-.28,2.24,1.68c-.98,2.94-2.1,5.88-3.22,8.96l-.56,1.26c-.14.56-.42,1.26-.7,1.96l-.42,1.26-.56,1.26c-.56,1.4-.98,2.66-1.54,4.06l-.56,1.26-.56,1.4c-.14.42-.28.84-.42,1.26l-.56,1.26c-.28.56-.42.98-.56,1.4l-.56,1.26c-.14.42-.28.98-.56,1.4l-.56,1.26c-.7,1.68-1.4,3.5-2.1,5.18,10.5,12.04,12.88,22.54,12.88,31.64,0,5.88-1.12,12.18-4.06,14.28-1.54,1.12-3.5,1.68-5.74,1.96-2.66.28-5.74.28-8.4,0-.14-.98-.56-2.1-1.26-3.36,3.36.28,6.16.42,8.68.14,1.68-.14,3.22-.84,4.34-1.4,2.38-1.82,3.08-7.28,3.08-11.62,0-8.54-2.66-18.9-13.44-31.22l.56-1.4c.28-.7.56-1.4.84-1.96l.56-1.4c.84-1.82,1.54-3.64,2.38-5.46l.42-1.26c.14-.28.28-.42.28-.7l.56-1.4c2.8-6.72,5.18-13.44,7.14-19.32h-22.96v116.06Zm24.5.56l-1.54-2.8c20.44-8.54,26.04-28.56,27.72-54.88h-19.6v-3.36h70.56v3.36h-24.22v46.76c0,2.8.7,4.34,6.86,4.34h7.42c6.02,0,6.58-3.36,6.86-18.62l3.22.42c-.42,16.94-1.26,21.56-9.8,21.56h-7.84c-8.54,0-10.08-1.4-10.08-7.7v-46.76h-19.88c-1.82,27.58-7.84,48.16-29.68,57.68Zm8.96-87.92h-3.36v-21.98h32.2v-15.68h3.5v15.68h34.72v21.98h-3.36v-18.48h-63.7v18.48Zm56.7,4.48h-49v-3.22h49v3.22Z"/><path class="cls-3" d="m696.58,707.16h-3.5v-38.36h-.56c-12.18,14.28-33.88,29.54-51.38,36.26l-1.68-3.5c16.1-5.46,35.98-19.88,47.88-32.76h-46.48v-3.78h52.22v-12.46h-36.82v-44.94c-4.62,6.72-9.52,12.74-15.82,18.62l-2.38-2.52c13.58-12.88,23.24-29.4,28.42-41.86l3.92.56c-2.38,5.32-5.04,10.08-8.54,16.24h30.24c2.8-4.9,5.88-11.48,7.56-16.66l3.78.84c-.56,1.26-1.12,2.52-1.68,3.92l-.56,1.26c-1.82,3.92-3.5,7.7-5.32,10.64h44.52v3.78h-42.42v12.6h38.5v3.5h-38.5v13.02h39.06v3.78h-39.06v13.72h48.3v3.5h-49.7v12.46h53.06v3.78h-47.6c12.18,12.46,32.62,26.18,49.28,31.08l-1.54,3.5c-18.34-6.02-40.74-20.86-52.78-34.58h-.42v38.36Zm-2.1-92.12v-12.6h-34.72v12.6h34.72Zm0,16.52v-13.02h-34.72v13.02h34.72Zm0,17.5v-13.72h-34.72v13.72h34.72Z"/><path class="cls-3" d="m970.25,663.62l-.28,1.54c-1.96,10.64-4.76,21.42-8.26,28.98l-3.5-1.96c4.06-7.14,6.58-17.36,8.4-27.86l.28-1.4c.28-1.68.56-3.36.84-5.04l3.5.7c-.28,1.68-.56,3.36-.98,5.04Zm14.84,44.1h-3.5v-61.88c-8.26.56-15.4.7-21.7.98l-.14-3.5,6.86-.28c2.66-3.5,5.6-8.12,8.4-12.74l.84-1.26c.14-.42.42-.84.7-1.26l.7-1.12c-3.92-6.44-10.64-14.7-17.22-20.72l2.24-1.96c1.54,1.4,2.8,2.52,4.34,4.06,4.62-7.7,9.8-18.06,12.88-25.9l3.22,1.68c-3.92,8.82-9.24,19.04-13.86,26.46,4.2,4.62,7.84,9.24,10.5,13.16l.42-.7.7-1.26c5.32-8.82,10.36-17.5,13.86-25.06l3.5,1.68c-3.22,5.74-6.86,12.32-10.64,18.76l-.7,1.26c-.56.84-.98,1.68-1.54,2.52l-.7,1.26c-.28.28-.56.7-.84,1.12l-.7,1.26c-4.06,6.58-8.12,12.88-11.9,18.06,7.56-.28,16.38-.56,25.48-.84l1.4-.14c-2.38-5.18-5.18-10.5-7.98-14.98l3.08-1.26c5.46,8.54,10.92,19.74,13.02,26.88l-3.22,1.54c-.7-2.38-1.82-5.18-3.08-8.54l-14.42.7v62.02Zm16.94-22.12c-1.12-7.28-4.48-18.76-8.26-27.3l2.8-.7c4.06,8.26,7.56,19.74,8.82,27.02l-3.36.98Zm66.64-50.12h-59.22v-3.5h26.6v-26.46h-30.94v-3.36h30.94v-20.02h3.36v20.02h31.92v3.36h-31.92v26.46h29.26v3.5Zm-3.92,65.24h-51.24v-45.78h51.24v45.78Zm-3.5-4.34v-38.08h-44.24v38.08h44.24Z"/></g></svg>