<?xml version="1.0" encoding="utf-8"?>
<!-- Generator: Adobe Illustrator 27.8.1, SVG Export Plug-In . SVG Version: 6.00 Build 0)  -->
<svg version="1.1" id="圖層_1" xmlns="http://www.w3.org/2000/svg" xmlns:xlink="http://www.w3.org/1999/xlink" x="0px" y="0px"
	 viewBox="0 0 1200 1200" style="enable-background:new 0 0 1200 1200;" xml:space="preserve">
<style type="text/css">
	.st0{fill:#FFFFFF;}
	.st1{fill:#040000;}
</style>
<g id="圖稿_1_00000143593866332498233970000000175362960649717422_">
	<path class="st0" d="M1047.4,533.8c-1.3-17.6-6.3-34.1-15-49.4c-8.8-15.2-20.2-29-34.4-41.2L880,341.5c-0.7-0.7-1.3-1.3-2-1.9
		c-0.7-0.6-1.5-1.1-2.1-1.7c-8.1-6.2-17.4-9.7-26.9-10.4c-15.1-1.2-30.5,4.4-41.1,16.6c-4.6,5.4-7.7,11.4-9.6,17.8
		c-2.5,8.2-2.8,17-0.8,25.3c0.6,2.4,1.4,4.9,2.3,7.2c2.7,7.1,7.2,13.5,13.1,18.9l0,0.1l124.4,107.3c13.4,11.4,20.4,23.9,21.4,37.4
		c0.9,13.6-4.2,26.7-15.2,39.6c-11.1,13-23.6,19.9-37.2,20.9c-13.6,0.9-27-4.2-40.1-15.4l-120-103.3c-0.9-1.1-2-2.1-3.2-3.1
		c-1.1-1-2.3-1.8-3.4-2.7c-2.3-1.7-4.9-3.1-7.4-4.4c-5.7-3-12-4.6-18.3-5.1c-4.9-0.4-9.9,0.1-14.7,1.1c-0.3,0.1-0.8,0.1-1.1,0.2
		c-0.9,0.2-1.7,0.4-2.6,0.8c-5.2,1.6-10.3,3.6-14.7,6.7c-3.3,2.2-6.2,4.8-8.9,7.8l-0.1,0L460.5,746.2c-11.5,13.3-24,20.4-37.7,21.2
		c-13.8,0.8-27.3-4.4-40.4-15.7c-13.3-11.4-20.4-24.1-21.4-37.9c-1.2-13.7,3.8-27.1,15.2-40.3l103.7-120.3c1-1.1,2.1-2.2,3-3.3
		c1-1.1,1.9-2.3,2.7-3.5c1.8-2.4,3.2-4.9,4.5-7.4c2.8-5.9,4.5-12.2,4.9-18.5c1.3-15.6-4.6-31.6-17.4-42.6
		c-12.8-11.1-29.6-14.6-44.9-11.1c-6.5,1.5-12.8,4.3-18.3,8.3c-3.3,2.3-6.2,5-9,8.1c-0.2,0.2-0.4,0.4-0.6,0.7c0.1,0,0.1-0.2,0.2-0.3
		L298.8,606.9c-11.5,13.4-24.1,20.4-37.8,21.3c-13.7,0.8-27.1-4.4-40.3-15.7c-13.3-11.4-20.4-24.1-21.6-37.8
		c-1.1-13.8,4-27.3,15.3-40.4l106.3-123.3l-0.2-0.2c0,0,0-0.1,0.1-0.1c18.1-21,15.8-52.8-5.3-70.9c-21-18.1-52.8-15.8-70.9,5.3
		c-1.3,1.6-2.6,3.2-3.6,4.9l-99.5,115.5c-10.1,11.8-19.4,27.3-28,46.7c-5.2,12-7.7,25.8-7.5,41.6c0.2,15.8,2.9,30.3,8.2,43.4
		c5.4,13.1,14.5,26.5,27.3,40.4c12.8,13.8,25.2,26,37.2,36.3c20.7,17.9,40.8,30.6,60.3,38c9.6,3.6,20,5.8,31.5,6.4
		c1.3,6.3,3.1,12.3,5.5,18.1c5.4,13.1,14.4,26.6,27.3,40.5c12.8,13.8,25.1,25.9,37.1,36.3c20.8,17.9,40.9,30.6,60.4,38
		c13.9,5.3,29.9,7.5,47.7,6.4c17.8-1.1,34.4-5.9,49.9-14.6c15.3-8.7,29.2-20.2,41.4-34.4l40.4-47l82.5,71.2
		c11.8,10.1,27.3,19.4,46.6,28c11.9,5.3,25.7,7.9,41.3,7.9c15.6-0.1,29.8-2.7,42.7-7.8c12.9-5.2,26.1-14,39.7-26.4
		c13.7-12.5,25.5-24.6,35.6-36.4c17.5-20.3,29.8-40.1,36.9-59.1c3.5-9.3,5.5-19.7,6-30.9c6.2-1.3,12.2-3,17.9-5.2
		c12.9-5.2,26.1-14,39.7-26.5c13.6-12.5,25.5-24.6,35.6-36.4c17.5-20.3,29.8-39.9,37-59C1046.7,567,1048.6,551.4,1047.4,533.8
		 M807.3,755.6c-11,13-23.5,20-37.1,20.9c-13.6,0.9-27-4.2-39.9-15.5L644.1,687l71.1-82.5l86,74.1c13.3,11.4,20.4,24,21.3,37.4
		C823.4,729.6,818.4,742.8,807.3,755.6"/>
</g>
</svg>
